HIERARCHY
ROOT pelvis
{
  OFFSET 0 100 0
  CHANNELS 6 Xposition Yposition Zposition Zrotation Xrotation Yrotation
  JOINT pelvis_right_femur
  {
    OFFSET -10.78128 -3.44521 -0.5502486
    CHANNELS 3 Zrotation Xrotation Yrotation
    JOINT right_femur_tibia
    {
      OFFSET -0.8047443 -44.0398 -0.1307829
      CHANNELS 3 Zrotation Xrotation Yrotation
      JOINT right_tibia_foot
      {
        OFFSET 3.006224 -47.83518 -5
        CHANNELS 3 Zrotation Xrotation Yrotation
        End Site
        {
          OFFSET 0 -5 15
        }
      }
    }
  }
  JOINT pelvis_left_femur
  {
    OFFSET 10.78128 -3.44521 -0.5502486
    CHANNELS 3 Zrotation Xrotation Yrotation
    JOINT left_femur_tibia
    {
      OFFSET 0.8047443 -44.0398 -0.1307829
      CHANNELS 3 Zrotation Xrotation Yrotation
      JOINT left_tibia_foot
      {
        OFFSET -4.370144 -48.10324 -4.275266
        CHANNELS 3 Zrotation Xrotation Yrotation
        End Site
        {
          OFFSET 0 -5 15
        }
      }
    }
  }
  JOINT pelvis_spine1
  {
    OFFSET 0 6.468898 -3.129235
    CHANNELS 3 Zrotation Xrotation Yrotation
    JOINT spine1
    {
      OFFSET 0 23.15396 4.99043
      CHANNELS 3 Zrotation Xrotation Yrotation
      JOINT spine2
      {
        OFFSET 0 20.79997 -5.064912
        CHANNELS 3 Zrotation Xrotation Yrotation
        JOINT neck
        {
          OFFSET 0 14.38658 9.616178
          CHANNELS 3 Zrotation Xrotation Yrotation
          End Site
          {
            OFFSET 0 20 0
          }
        }
      }
      JOINT right_manubrium
      {
        OFFSET -5.722621 16.35077 3.967754
        CHANNELS 3 Zrotation Xrotation Yrotation
        JOINT right_clavicle
        {
          OFFSET -13.16364 1.694482 -4.693211
          CHANNELS 3 Zrotation Xrotation Yrotation
          JOINT right_humerus
          {
            OFFSET -28.5034 -0.3100689 -2.792744
            CHANNELS 3 Zrotation Xrotation Yrotation
            JOINT right_radius
            {
              OFFSET -25.15693 0.02248979 -1.271978
              CHANNELS 3 Zrotation Xrotation Yrotation
              End Site
              {
                OFFSET -15 0 0
              }
            }
          }
        }
      }
      JOINT left_manubrium
      {
        OFFSET 5.722621 16.35077 3.967754
        CHANNELS 3 Zrotation Xrotation Yrotation
        JOINT left_clavicle
        {
          OFFSET 13.16364 1.694482 -4.693211
          CHANNELS 3 Zrotation Xrotation Yrotation
          JOINT left_humerus
          {
            OFFSET 29.39168 -1.063119 -2.237045
            CHANNELS 3 Zrotation Xrotation Yrotation
            JOINT left_radius
            {
              OFFSET 24.59957 -0.9528479 0.9047498
              CHANNELS 3 Zrotation Xrotation Yrotation
              End Site
              {
                OFFSET 15 -0 -0
              }
            }
          }
        }
      }
    }
  }
}
MOTION
Frames: 8
Frame Time: 0.0416666666667
26.33272 104.654 228.9365 0.737912 -5.916413 0.4382822 1.934542 9.483117 6.502177 1.319817e-09 31.50244 -4.495345e-12 4.900977 -10.71016 -2.624989 -1.544611 -17.70466 -7.415252 1.192948e-09 19.68637 -4.055503e-09 -7.13476 -11.32581 18.97339 -1.201794 -0.1020228 7.894244 -0.8622319 9.014732 -3.358483 2.379061 21.1225 6.08626 1.795482 -17.39691 8.539021 2.337987 -20.79221 11.1502 80.68255 23.38257 -6.674485 2.128933e-10 -7.379455e-10 25.68236 -24.93693 13.92701 13.48955 5.1211 -14.90964 -1.279701 -94.35025 21.42129 25.425 5.741487e-11 -2.325455e-10 -8.597815 -2.813737 7.7277 15.21924
27.50671 104.8626 235.2406 0.9480088 -6.34149 0.5943071 1.362717 8.50293 6.559913 1.127965e-09 38.47066 4.39107e-11 4.868111 -8.702585 -3.273601 -2.595538 -14.92501 -8.305554 1.488445e-09 21.06916 -4.826147e-09 -6.927279 -11.36152 18.76465 -1.492095 -0.2692045 7.485227 -1.00789 8.983988 -3.433683 2.41957 21.37749 6.157392 1.79866 -17.20964 8.675617 2.604413 -19.96616 10.99262 81.17219 23.58739 -7.354593 1.304737e-10 -8.435148e-10 24.38645 -24.61791 13.68863 13.05678 4.819556 -14.76572 -1.419519 -93.40136 21.96519 24.24115 1.128053e-10 -2.014397e-10 -8.356132 -2.642028 7.868043 15.11282
28.65684 105.4887 241.3137 1.198475 -7.020246 1.031531 0.8210503 5.556066 6.451773 8.027695e-10 46.18632 1.984903e-10 4.75003 -7.087087 -4.236302 -3.706437 -10.90658 -9.295291 7.124673e-10 21.65237 -4.21416e-09 -6.470158 -12.02152 18.34453 -1.830085 -0.2083165 6.832924 -1.100681 9.028942 -3.714654 2.417942 21.79293 6.253912 1.714107 -16.93172 8.883794 2.888673 -19.05017 10.897 82.29625 23.83735 -8.60255 -5.178763e-11 -8.350445e-10 22.84285 -24.07642 13.56072 12.45103 4.575669 -14.98118 -1.789976 -92.12256 22.6662 22.27998 1.154508e-10 -1.902785e-10 -8.938039 -2.272812 8.157582 14.81494
29.74574 106.3642 246.9362 1.380872 -7.652631 1.724712 0.5087433 1.119482 6.134353 3.399185e-10 52.12577 4.61995e-10 4.266454 -6.599299 -5.288972 -4.5229 -6.280174 -10.1695 -8.544855e-10 21.29926 -2.281775e-09 -5.867995 -13.0254 17.65832 -2.09533 0.04706065 5.982059 -1.046777 9.009058 -4.173077 2.370253 22.21707 6.276858 1.515983 -16.59571 9.0659 3.10381 -18.09788 10.79794 83.46249 24.17237 -10.0949 -2.742217e-10 -6.738721e-10 21.15625 -22.98725 13.48758 11.60789 4.410045 -15.46256 -2.241166 -90.36811 23.46452 19.73423 9.112488e-11 -1.882331e-10 -10.17135 -1.704438 8.639185 14.25261
30.75417 107.2883 252.168 1.417713 -7.939854 2.596844 0.521155 -4.24075 5.584533 -5.619308e-11 54.7547 7.125819e-10 3.559363 -6.746531 -6.217933 -4.947916 -1.406757 -10.80705 -2.239861e-09 20.13591 -1.005393e-10 -5.480114 -14.30584 16.70556 -2.178841 0.3446659 5.055135 -0.8500033 8.86148 -4.727204 2.332682 22.55268 6.255082 1.280556 -16.3698 9.249147 3.14614 -17.20108 10.66162 84.75533 24.37395 -11.7494 -4.316219e-10 -4.477191e-10 19.50612 -21.68938 13.44495 10.72354 4.448241 -16.12976 -2.641858 -88.65669 24.08837 17.04108 7.848147e-11 -1.940668e-10 -11.87261 -1.009416 9.224264 13.49013
31.68378 107.9865 257.1586 1.419421 -7.835898 3.553718 0.6872252 -9.527851 4.905986 -2.640269e-10 53.19118 8.482208e-10 2.920092 -7.204425 -6.832337 -5.090575 2.911389 -11.20001 -2.947547e-09 17.86501 1.60365e-09 -5.229544 -15.92636 15.96547 -2.197117 0.5923386 4.251647 -0.5734588 8.597085 -5.250713 2.328456 22.75668 6.241623 1.12434 -16.25327 9.398594 2.990043 -16.4507 10.48942 85.84298 24.40797 -13.28601 -4.781683e-10 -2.346311e-10 18.03215 -20.65457 13.33562 10.00073 4.818996 -16.89238 -2.904363 -87.15292 24.39044 14.3554 9.766294e-11 -2.128931e-10 -13.92859 -0.270302 9.786793 12.55221
32.50484 108.254 261.9772 1.388465 -7.45236 4.477087 1.002811 -14.62015 4.260546 -3.102462e-10 47.93125 8.341955e-10 2.235479 -7.870439 -7.22619 -5.047039 6.770488 -11.46 -3.158683e-09 15.37099 2.937252e-09 -5.004908 -17.69038 15.56677 -2.192336 0.7978546 3.550216 -0.2041094 8.260269 -5.747631 2.353486 22.82412 6.217797 1.067544 -16.19676 9.47008 2.729544 -15.71874 10.28772 86.50061 24.44126 -14.73018 -4.343134e-10 -1.434335e-11 16.48083 -19.69146 13.11908 9.299757 5.447313 -17.70619 -3.028266 -85.62932 24.45225 11.566 1.427375e-10 -2.297628e-10 -16.17804 0.5101108 10.32745 11.42804
33.22675 108.0568 266.9907 1.340474 -6.777971 5.277972 1.300366 -18.68018 3.544986 -3.03339e-10 40.14416 8.229932e-10 1.764941 -8.376508 -7.473872 -4.914258 10.18948 -11.41282 -2.096476e-09 13.36421 2.958929e-09 -5.151494 -19.31057 15.29002 -2.194456 0.7592002 3.021601 0.1668149 7.801342 -6.201773 2.443664 22.89146 6.19147 1.10493 -16.1893 9.505235 2.34738 -14.94084 10.02675 87.38693 24.42423 -16.22427 -2.617746e-10 7.685291e-11 14.87319 -19.28008 12.95059 8.829433 6.286356 -18.54599 -2.925736 -84.55715 24.23444 8.753708 2.895471e-10 -2.454254e-10 -18.56159 1.263296 10.74692 10.27334
